<svg xmlns="http://www.w3.org/2000/svg" viewBox="0 0 100 100" preserveAspectRatio="xMidYMid" width="224" height="224" style="shape-rendering: auto; display: block; background: transparent;" xmlns:xlink="http://www.w3.org/1999/xlink"><g><g transform="rotate(0 50 50)">
  <rect fill="#777172" height="16" width="4" ry="8" rx="2" y="21" x="48">
    <animate repeatCount="indefinite" begin="-1.0924369747899159s" dur="1.1764705882352942s" keyTimes="0;1" values="1;0" attributeName="opacity"></animate>
  </rect>
</g><g transform="rotate(25.714285714285715 50 50)">
  <rect fill="#777172" height="16" width="4" ry="8" rx="2" y="21" x="48">
    <animate repeatCount="indefinite" begin="-1.0084033613445378s" dur="1.1764705882352942s" keyTimes="0;1" values="1;0" attributeName="opacity"></animate>
  </rect>
</g><g transform="rotate(51.42857142857143 50 50)">
  <rect fill="#777172" height="16" width="4" ry="8" rx="2" y="21" x="48">
    <animate repeatCount="indefinite" begin="-0.9243697478991596s" dur="1.1764705882352942s" keyTimes="0;1" values="1;0" attributeName="opacity"></animate>
  </rect>
</g><g transform="rotate(77.14285714285714 50 50)">
  <rect fill="#777172" height="16" width="4" ry="8" rx="2" y="21" x="48">
    <animate repeatCount="indefinite" begin="-0.8403361344537815s" dur="1.1764705882352942s" keyTimes="0;1" values="1;0" attributeName="opacity"></animate>
  </rect>
</g><g transform="rotate(102.85714285714286 50 50)">
  <rect fill="#777172" height="16" width="4" ry="8" rx="2" y="21" x="48">
    <animate repeatCount="indefinite" begin="-0.7563025210084033s" dur="1.1764705882352942s" keyTimes="0;1" values="1;0" attributeName="opacity"></animate>
  </rect>
</g><g transform="rotate(128.57142857142858 50 50)">
  <rect fill="#777172" height="16" width="4" ry="8" rx="2" y="21" x="48">
    <animate repeatCount="indefinite" begin="-0.6722689075630252s" dur="1.1764705882352942s" keyTimes="0;1" values="1;0" attributeName="opacity"></animate>
  </rect>
</g><g transform="rotate(154.28571428571428 50 50)">
  <rect fill="#777172" height="16" width="4" ry="8" rx="2" y="21" x="48">
    <animate repeatCount="indefinite" begin="-0.5882352941176471s" dur="1.1764705882352942s" keyTimes="0;1" values="1;0" attributeName="opacity"></animate>
  </rect>
</g><g transform="rotate(180 50 50)">
  <rect fill="#777172" height="16" width="4" ry="8" rx="2" y="21" x="48">
    <animate repeatCount="indefinite" begin="-0.5042016806722689s" dur="1.1764705882352942s" keyTimes="0;1" values="1;0" attributeName="opacity"></animate>
  </rect>
</g><g transform="rotate(205.71428571428572 50 50)">
  <rect fill="#777172" height="16" width="4" ry="8" rx="2" y="21" x="48">
    <animate repeatCount="indefinite" begin="-0.42016806722689076s" dur="1.1764705882352942s" keyTimes="0;1" values="1;0" attributeName="opacity"></animate>
  </rect>
</g><g transform="rotate(231.42857142857142 50 50)">
  <rect fill="#777172" height="16" width="4" ry="8" rx="2" y="21" x="48">
    <animate repeatCount="indefinite" begin="-0.3361344537815126s" dur="1.1764705882352942s" keyTimes="0;1" values="1;0" attributeName="opacity"></animate>
  </rect>
</g><g transform="rotate(257.14285714285717 50 50)">
  <rect fill="#777172" height="16" width="4" ry="8" rx="2" y="21" x="48">
    <animate repeatCount="indefinite" begin="-0.25210084033613445s" dur="1.1764705882352942s" keyTimes="0;1" values="1;0" attributeName="opacity"></animate>
  </rect>
</g><g transform="rotate(282.85714285714283 50 50)">
  <rect fill="#777172" height="16" width="4" ry="8" rx="2" y="21" x="48">
    <animate repeatCount="indefinite" begin="-0.1680672268907563s" dur="1.1764705882352942s" keyTimes="0;1" values="1;0" attributeName="opacity"></animate>
  </rect>
</g><g transform="rotate(308.57142857142856 50 50)">
  <rect fill="#777172" height="16" width="4" ry="8" rx="2" y="21" x="48">
    <animate repeatCount="indefinite" begin="-0.08403361344537814s" dur="1.1764705882352942s" keyTimes="0;1" values="1;0" attributeName="opacity"></animate>
  </rect>
</g><g transform="rotate(334.2857142857143 50 50)">
  <rect fill="#777172" height="16" width="4" ry="8" rx="2" y="21" x="48">
    <animate repeatCount="indefinite" begin="0s" dur="1.1764705882352942s" keyTimes="0;1" values="1;0" attributeName="opacity"></animate>
  </rect>
</g><g></g></g><!-- [ldio] generated by https://loading.io --></svg>